# xmcd
#
# Track frame offsets:
#	150
#	12196
#	21894
#	31123
#	43010
#	56495
#	67913
#	79903
#	92595
#	103452
#	114812
#	128602
#	138332
#	150923
#	160302
#	171665
#	184873
#	199000
#	208792
#	221560
#	231521
#	247657
#	258896
#
# Disc length: 3585 seconds
#
# Revision: 1481663049
# Processed by: cddbd v1.5.2PL0 Copyright (c) Steve Scherf et al.
# Submitted via: EZCDAudioConverter 2.1.5.1
#
DISCID=320dff17
DTITLE=The Stanley Brothers - Early Starday-King Years 1958-1961 [CD3]
DYEAR=2011
DGENRE=Country
TTITLE0=Purple Robe
TTITLE1=When Jesus Beckons Me Home
TTITLE2=Jordan
TTITLE3=Pass Me Not
TTITLE4=Lonely Tombs
TTITLE5=Over in the Gloryland
TTITLE6=How Far to Little Rock
TTITLE7=Few More Seasons
TTITLE8=Where We'll Never Die
TTITLE9=In Heaven We'll Never Grow Old
TTITLE10=Mother No Longer Awaits Me
TTITLE11=If I Lose
TTITLE12=Little Maggie
TTITLE13=God Gave You to Me
TTITLE14=Don't Go Out Tonight
TTITLE15=The Darkest Hour Is Just Before Dawn
TTITLE16=Rank Strangers
TTITLE17=Let the Church Roll On
TTITLE18=Rock of Ages
TTITLE19=I Saw the Light
TTITLE20=What a Friend
TTITLE21=Gathering Flowers for the Master's Bouquet
TTITLE22=I'm Ready to Go
EXTD=
EXTT0=
EXTT1=
EXTT2=
EXTT3=
EXTT4=
EXTT5=
EXTT6=
EXTT7=
EXTT8=
EXTT9=
EXTT10=
EXTT11=
EXTT12=
EXTT13=
EXTT14=
EXTT15=
EXTT16=
EXTT17=
EXTT18=
EXTT19=
EXTT20=
EXTT21=
EXTT22=
PLAYORDER=
